<?xml version="1.0" encoding="UTF-8"?>
<svg xmlns="http://www.w3.org/2000/svg" width="1600" height="480" viewBox="0 0 1600 480" role="img" aria-labelledby="title desc">
  <title id="title">thrive-slides banner option 5 - Input to Deck Pipeline</title>
  <desc id="desc">README banner showing text, markdown, and PDF flowing through the slide system into a finished deck.</desc>
  <defs>
    <linearGradient id="cyan" x1="0" y1="0" x2="1" y2="1">
      <stop offset="0%" stop-color="#19D8FF"/>
      <stop offset="100%" stop-color="#26E6A6"/>
    </linearGradient>
    <linearGradient id="coral" x1="0" y1="0" x2="1" y2="1">
      <stop offset="0%" stop-color="#FF5B55"/>
      <stop offset="100%" stop-color="#F5B84B"/>
    </linearGradient>
    <linearGradient id="emerald" x1="0" y1="0" x2="1" y2="1">
      <stop offset="0%" stop-color="#093A30"/>
      <stop offset="100%" stop-color="#32D39B"/>
    </linearGradient>
    <linearGradient id="gold" x1="0" y1="0" x2="1" y2="1">
      <stop offset="0%" stop-color="#F5C76A"/>
      <stop offset="100%" stop-color="#D99716"/>
    </linearGradient>
    <filter id="softShadow" x="-20%" y="-20%" width="140%" height="140%">
      <feDropShadow dx="0" dy="14" stdDeviation="18" flood-color="#06111F" flood-opacity=".18"/>
    </filter>
    <pattern id="grid8" width="32" height="32" patternUnits="userSpaceOnUse">
      <path d="M 32 0 L 0 0 0 32" fill="none" stroke="#FFFFFF" stroke-opacity=".055" stroke-width="1"/>
    </pattern>
    <pattern id="dotgrid" width="26" height="26" patternUnits="userSpaceOnUse">
      <circle cx="2" cy="2" r="2" fill="#19D8FF" opacity=".32"/>
    </pattern>
    <style>
      .word { font-family: Inter, ui-sans-serif, system-ui, -apple-system, BlinkMacSystemFont, "Segoe UI", sans-serif; font-weight: 760; letter-spacing: 0; }
      .mono { font-family: "SF Mono", "Roboto Mono", ui-monospace, monospace; font-weight: 650; letter-spacing: 0; }
      .displayMono { font-family: "PT Mono", "Courier New", Courier, ui-monospace, monospace; font-weight: 700; letter-spacing: 0; }
      .label { font-family: Inter, ui-sans-serif, system-ui, -apple-system, BlinkMacSystemFont, "Segoe UI", sans-serif; font-weight: 650; letter-spacing: 0; }
      .small { font-family: Inter, ui-sans-serif, system-ui, -apple-system, BlinkMacSystemFont, "Segoe UI", sans-serif; font-weight: 560; letter-spacing: 0; }
      
    </style>
  </defs>

  <rect width="1600" height="480" fill="#F8FAFC"/>
  <g transform="translate(96 114)">
    <text class="displayMono" x="0" y="0" fill="#071A2E" font-size="72">thrive-slides</text>
    <rect x="4" y="37" width="92" height="10" fill="#19D8FF"/>
    <text class="small" x="0" y="88" fill="#607285" font-size="27">text / Markdown / PDF → theme-aware 16:9 decks</text>
  </g>
  <g transform="translate(94 238)">
    <g fill="#FFFFFF" stroke="#D5E0EA" stroke-width="2">
      <rect x="0" y="0" width="64" height="64" rx="10"/><rect x="0" y="80" width="64" height="64" rx="10"/><rect x="0" y="160" width="64" height="64" rx="10"/>
    </g>
    <text class="displayMono" x="10" y="41" fill="#071A2E" font-size="22">Txt</text>
    <text class="displayMono" x="16" y="123" fill="#071A2E" font-size="28">MD</text>
    <text class="displayMono" x="12" y="203" fill="#EF594C" font-size="24">PDF</text>
    <path d="M78 32H132M78 112H132M78 192H132M132 32V192M132 85H202" fill="none" stroke="#071A2E" stroke-width="4" stroke-dasharray="8 10" stroke-linecap="square"/>
  </g>
  <g transform="translate(296 260)">
    <g>
      <rect x="0" y="0" width="126" height="126" rx="22" fill="#DDF7FF" stroke="#93E8FF"/>
      <rect x="16" y="16" width="94" height="94" rx="16" fill="url(#cyan)"/>
      <path d="M40 48h52v36H40zM48 56h18M74 56h10M48 70h10M66 70h18" stroke="#FFFFFF" stroke-width="4" fill="none"/>
      <text class="small" x="20" y="160" fill="#607285" font-size="20">Layout</text>
    </g>
    <g transform="translate(210 0)">
      <rect x="0" y="0" width="126" height="126" rx="22" fill="#E4F8EF" stroke="#A6EACB"/>
      <rect x="16" y="16" width="94" height="94" rx="16" fill="#23AD76"/>
      <circle cx="63" cy="63" r="30" fill="#FFFFFF"/>
      <circle cx="52" cy="53" r="6" fill="#23AD76"/><circle cx="72" cy="52" r="6" fill="#23AD76"/><circle cx="78" cy="72" r="6" fill="#23AD76"/><circle cx="55" cy="76" r="6" fill="#23AD76"/>
      <text class="small" x="20" y="160" fill="#607285" font-size="20">Theme</text>
    </g>
    <g transform="translate(420 0)">
      <rect x="0" y="0" width="126" height="126" rx="22" fill="#FFE8E1" stroke="#FFB6A9"/>
      <rect x="16" y="16" width="94" height="94" rx="16" fill="#EF594C"/>
      <path d="M42 62l34-34 28 28-34 34z" fill="none" stroke="#FFFFFF" stroke-width="8" stroke-linejoin="round"/>
      <text class="small" x="22" y="160" fill="#607285" font-size="20">Brand</text>
    </g>
    <g transform="translate(630 0)">
      <rect x="0" y="0" width="126" height="126" rx="22" fill="#E5F1FF" stroke="#ACD4FF"/>
      <rect x="16" y="16" width="94" height="94" rx="16" fill="#2688E9"/>
      <path d="M63 34l11 25 25 11-25 11-11 25-11-25-25-11 25-11z" fill="none" stroke="#FFFFFF" stroke-width="7" stroke-linejoin="round"/>
      <text class="small" x="0" y="160" fill="#607285" font-size="20">Generation</text>
    </g>
    <path d="M136 63h64M346 63h64M556 63h64M766 63h84" stroke="#071A2E" stroke-width="4" marker-end="url(#arrow)"/>
  </g>
  <defs>
    <marker id="arrow" markerWidth="12" markerHeight="12" refX="10" refY="6" orient="auto">
      <path d="M0 0L12 6L0 12z" fill="#071A2E"/>
    </marker>
  </defs>
  <g transform="translate(1225 214)" filter="url(#softShadow)">
    <rect x="60" y="38" width="250" height="160" rx="14" fill="#071A2E" opacity=".28"/>
    <rect x="34" y="20" width="250" height="160" rx="14" fill="#EF594C"/>
    <rect x="0" y="0" width="250" height="160" rx="14" fill="#FFFFFF" stroke="#D5E0EA"/>
    <path d="M34 112l48-54 42 42 30-26 52 38z" fill="#DCEBE2"/>
    <circle cx="78" cy="44" r="13" fill="#D99716"/>
    <path d="M142 48h64M142 78h82M142 108h58" stroke="#071A2E" stroke-width="7"/>
  </g>
  <rect x="1224" y="70" width="240" height="180" fill="url(#dotgrid)" opacity=".5"/>
  
</svg>
